<svg xmlns="http://www.w3.org/2000/svg" viewBox="0 0 320 320" width="320" height="320" role="img" aria-label="Kaspi QR placeholder">
  <rect width="320" height="320" fill="#ffffff" stroke="#d9d9d9" stroke-width="2"/>
  <g fill="#1f2d3d">
    <rect x="16" y="16" width="72" height="72"/>
    <rect x="28" y="28" width="48" height="48" fill="#ffffff"/>
    <rect x="40" y="40" width="24" height="24"/>
    <rect x="232" y="16" width="72" height="72"/>
    <rect x="244" y="28" width="48" height="48" fill="#ffffff"/>
    <rect x="256" y="40" width="24" height="24"/>
    <rect x="16" y="232" width="72" height="72"/>
    <rect x="28" y="244" width="48" height="48" fill="#ffffff"/>
    <rect x="40" y="256" width="24" height="24"/>
  </g>
  <g fill="#1f2d3d" opacity="0.2">
    <rect x="104" y="24" width="12" height="12"/><rect x="128" y="24" width="12" height="12"/><rect x="160" y="24" width="12" height="12"/><rect x="192" y="24" width="12" height="12"/><rect x="216" y="24" width="12" height="12"/>
    <rect x="104" y="56" width="12" height="12"/><rect x="144" y="56" width="12" height="12"/><rect x="176" y="56" width="12" height="12"/><rect x="208" y="56" width="12" height="12"/>
    <rect x="24" y="104" width="12" height="12"/><rect x="56" y="104" width="12" height="12"/><rect x="88" y="104" width="12" height="12"/><rect x="120" y="104" width="12" height="12"/><rect x="184" y="104" width="12" height="12"/><rect x="216" y="104" width="12" height="12"/><rect x="264" y="104" width="12" height="12"/>
    <rect x="104" y="136" width="12" height="12"/><rect x="136" y="136" width="12" height="12"/><rect x="168" y="136" width="12" height="12"/><rect x="200" y="136" width="12" height="12"/><rect x="232" y="136" width="12" height="12"/>
    <rect x="24" y="168" width="12" height="12"/><rect x="72" y="168" width="12" height="12"/><rect x="112" y="168" width="12" height="12"/><rect x="152" y="168" width="12" height="12"/><rect x="192" y="168" width="12" height="12"/><rect x="240" y="168" width="12" height="12"/><rect x="280" y="168" width="12" height="12"/>
    <rect x="104" y="200" width="12" height="12"/><rect x="144" y="200" width="12" height="12"/><rect x="176" y="200" width="12" height="12"/><rect x="216" y="200" width="12" height="12"/>
    <rect x="120" y="232" width="12" height="12"/><rect x="160" y="232" width="12" height="12"/><rect x="192" y="232" width="12" height="12"/><rect x="232" y="232" width="12" height="12"/><rect x="264" y="232" width="12" height="12"/>
    <rect x="104" y="264" width="12" height="12"/><rect x="144" y="264" width="12" height="12"/><rect x="184" y="264" width="12" height="12"/><rect x="216" y="264" width="12" height="12"/><rect x="248" y="264" width="12" height="12"/>
  </g>
  <rect x="128" y="128" width="64" height="64" fill="#ffffff"/>
  <rect x="136" y="136" width="48" height="48" fill="#f14635"/>
  <text x="160" y="168" text-anchor="middle" font-family="system-ui, sans-serif" font-size="16" font-weight="700" fill="#ffffff">Kaspi</text>
</svg>
