<svg width="104" height="104" viewBox="0 0 87.8114 91.9989" fill="none" xmlns="http://www.w3.org/2000/svg">
<g id="Group 1321316410">
<path id="Vector" d="M77.4293 35.5259V18.7638C77.4293 16.5411 76.5463 14.4093 74.9745 12.8376C73.4028 11.2658 71.271 10.3828 69.0483 10.3828H10.381C8.15824 10.3828 6.0265 11.2658 4.45475 12.8376C2.883 14.4093 2 16.5411 2 18.7638V77.4311C2 82.0406 5.77146 85.8121 10.381 85.8121H39.7146" stroke="#59B002" stroke-width="4" stroke-linecap="round" stroke-linejoin="round"/>
<path id="Vector_2" d="M56.4766 2V18.7621" stroke="#59B002" stroke-width="4" stroke-linecap="round" stroke-linejoin="round"/>
<path id="Vector_3" d="M22.9531 2V18.7621" stroke="#59B002" stroke-width="4" stroke-linecap="round" stroke-linejoin="round"/>
<path id="Vector_4" d="M2 35.5234H77.4293" stroke="#59B002" stroke-width="4" stroke-linecap="round" stroke-linejoin="round"/>
<path id="Vector_5" d="M64.8588 89.9989C76.4306 89.9989 85.8114 80.6181 85.8114 69.0463C85.8114 57.4745 76.4306 48.0938 64.8588 48.0938C53.287 48.0938 43.9062 57.4745 43.9062 69.0463C43.9062 80.6181 53.287 89.9989 64.8588 89.9989Z" stroke="#59B002" stroke-width="4" stroke-linecap="round" stroke-linejoin="round"/>
<path id="Vector_6" d="M64.8516 58.5723V69.0486L71.1373 75.3343" stroke="#59B002" stroke-width="4" stroke-linecap="round" stroke-linejoin="round"/>
</g>
</svg>
