<svg preserveAspectRatio="none" width="100%" height="100%" overflow="visible" style="display: block;" viewBox="0 0 94.1203 74.5102" fill="none" xmlns="http://www.w3.org/2000/svg">
<g id="Group 1321316412">
<path id="Vector" d="M2.05939 2.05939H48.0531C50.3868 2.05939 52.6249 2.98644 54.2751 4.63662C55.9252 6.28679 56.8523 8.5249 56.8523 10.8586V63.6538" stroke="var(--stroke-0, #59B002)" stroke-width="4.11878" stroke-linecap="round" stroke-linejoin="round"/>
<path id="Vector_2" d="M61.2617 63.6512H34.8641" stroke="var(--stroke-0, #59B002)" stroke-width="4.11878" stroke-linecap="round" stroke-linejoin="round"/>
<path id="Vector_3" d="M78.8621 63.6511H87.6613C88.8281 63.6511 89.9472 63.1876 90.7723 62.3625C91.5974 61.5374 92.0609 60.4184 92.0609 59.2515V43.193C92.0551 42.2006 91.714 41.2393 91.093 40.4652L75.7824 21.3269C75.3726 20.8084 74.8514 20.3889 74.2573 20.0995C73.6632 19.81 73.0115 19.6581 72.3507 19.6551H56.8641" stroke="var(--stroke-0, #59B002)" stroke-width="4.11878" stroke-linecap="round" stroke-linejoin="round"/>
<path id="Vector_4" d="M26.0695 72.4508C30.9292 72.4508 34.8687 68.5112 34.8687 63.6516C34.8687 58.7919 30.9292 54.8524 26.0695 54.8524C21.2099 54.8524 17.2703 58.7919 17.2703 63.6516C17.2703 68.5112 21.2099 72.4508 26.0695 72.4508Z" stroke="var(--stroke-0, #59B002)" stroke-width="4.11878" stroke-linecap="round" stroke-linejoin="round"/>
<path id="Vector_5" d="M70.0539 72.4508C74.9136 72.4508 78.8531 68.5112 78.8531 63.6516C78.8531 58.7919 74.9136 54.8524 70.0539 54.8524C65.1942 54.8524 61.2547 58.7919 61.2547 63.6516C61.2547 68.5112 65.1942 72.4508 70.0539 72.4508Z" stroke="var(--stroke-0, #59B002)" stroke-width="4.11878" stroke-linecap="round" stroke-linejoin="round"/>
<path id="Vector_6" d="M2.05939 16.0594H15.0594" stroke="var(--stroke-0, #59B002)" stroke-width="4.11878" stroke-linecap="round" stroke-linejoin="round"/>
<path id="Vector_7" d="M2.05939 28.0594H15.0594" stroke="var(--stroke-0, #59B002)" stroke-width="4.11878" stroke-linecap="round" stroke-linejoin="round"/>
<path id="Vector_8" d="M2.05939 40.0594H15.0594" stroke="var(--stroke-0, #59B002)" stroke-width="4.11878" stroke-linecap="round" stroke-linejoin="round"/>
<path id="Vector_9" d="M2.05939 52.0594H15.0594" stroke="var(--stroke-0, #59B002)" stroke-width="4.11878" stroke-linecap="round" stroke-linejoin="round"/>
<path id="Vector_10" d="M2.05939 64.0594H15.0594" stroke="var(--stroke-0, #59B002)" stroke-width="4.11878" stroke-linecap="round" stroke-linejoin="round"/>
</g>
</svg>
