<svg preserveAspectRatio="none" width="100%" height="100%" overflow="visible" style="display: block;" viewBox="0 0 96.3457 92" fill="none" xmlns="http://www.w3.org/2000/svg">
<g id="Group 1321316411">
<path id="Vector" d="M35.6816 90C38.0817 90 40.0273 88.0543 40.0273 85.6543C40.0273 83.2542 38.0817 81.3086 35.6816 81.3086C33.2816 81.3086 31.3359 83.2542 31.3359 85.6543C31.3359 88.0543 33.2816 90 35.6816 90Z" stroke="url(#paint0_linear_0_4)" stroke-width="4" stroke-linecap="round" stroke-linejoin="round"/>
<path id="Vector_2" d="M81.3066 90C83.7067 90 85.6523 88.0543 85.6523 85.6543C85.6523 83.2542 83.7067 81.3086 81.3066 81.3086C78.9066 81.3086 76.9609 83.2542 76.9609 85.6543C76.9609 88.0543 78.9066 90 81.3066 90Z" stroke="url(#paint1_linear_0_4)" stroke-width="4" stroke-linecap="round" stroke-linejoin="round"/>
<path id="Vector_3" d="M2 2H18.7901L30.0395 58.2476C30.4233 60.1816 31.4747 61.9189 33.0094 63.1553C34.5442 64.3918 36.4647 65.0486 38.4346 65.0108H79.2346C81.2045 65.0486 83.1249 64.3918 84.6597 63.1553C86.1945 61.9189 87.2458 60.1816 87.6296 58.2476L94.3457 23.0036H22.9877" stroke="url(#paint2_linear_0_4)" stroke-width="4" stroke-linecap="round" stroke-linejoin="round"/>
</g>
<defs>
<linearGradient id="paint0_linear_0_4" x1="35.6816" y1="81.3086" x2="35.6816" y2="90" gradientUnits="userSpaceOnUse">
<stop stop-color="#20B7FB"/>
<stop offset="1" stop-color="#0295CB"/>
</linearGradient>
<linearGradient id="paint1_linear_0_4" x1="81.3066" y1="81.3086" x2="81.3066" y2="90" gradientUnits="userSpaceOnUse">
<stop stop-color="#20B7FB"/>
<stop offset="1" stop-color="#0295CB"/>
</linearGradient>
<linearGradient id="paint2_linear_0_4" x1="48.1728" y1="2" x2="48.1728" y2="65.0123" gradientUnits="userSpaceOnUse">
<stop stop-color="#20B7FB"/>
<stop offset="1" stop-color="#0295CB"/>
</linearGradient>
</defs>
</svg>
