<svg xmlns="http://www.w3.org/2000/svg" width="32" height="32" viewBox="0 0 32 32" fill="#25D366"><path d="M16 0C7.163 0 0 7.163 0 16c0 2.82.73 5.472 2.01 7.78L0 32l8.45-2.21C10.68 30.94 13.27 32 16 32c8.837 0 16-7.163 16-16S24.837 0 16 0zm0 29.333c-2.544 0-4.933-.693-6.987-1.9l-.5-.293-5.2 1.36 1.387-5.067-.32-.52A13.253 13.253 0 0 1 2.667 16c0-7.36 5.973-13.333 13.333-13.333S29.333 8.64 29.333 16 23.36 29.333 16 29.333zm7.293-9.947c-.4-.2-2.36-1.173-2.72-1.307-.36-.133-.627-.2-.893.2-.267.4-1.027 1.307-1.253 1.573-.227.267-.467.293-.867.093-.4-.2-1.693-.627-3.213-1.987-1.187-1.067-1.987-2.373-2.213-2.773-.227-.4-.027-.613.173-.813.187-.187.4-.467.6-.707.2-.24.267-.4.4-.667.133-.267.067-.507-.027-.707-.093-.2-.893-2.173-1.227-2.973-.32-.773-.653-.68-.893-.68-.24-.013-.507-.013-.773-.013s-.707.093-1.067.507c-.373.4-1.413 1.4-1.413 3.413s1.453 3.96 1.653 4.24c.2.267 2.867 4.373 6.947 6.133.973.413 1.733.667 2.32.853.973.307 1.867.267 2.573.16.787-.12 2.36-.973 2.693-1.893.333-.933.333-1.733.24-1.893-.08-.16-.36-.267-.76-.467z"/></svg>
