<svg width="36" height="44" viewBox="0 0 36 44" fill="none" xmlns="http://www.w3.org/2000/svg">
<path d="M34.3854 11.6478V16.7182C33.9882 16.9201 33.5891 17.1313 33.1903 17.3524C30.4925 18.8483 27.7451 20.8156 25.5565 23.3107V17.5876C25.5565 16.1892 24.705 14.9897 23.4922 14.4792C24.5099 12.6848 26.2476 10.3872 28.798 8.42188L34.3854 11.6478Z" fill="#37CFD9"/>
<path d="M22.1842 16.4531C22.8048 16.4531 23.3079 16.9562 23.3079 17.5768V28.9758C21.4075 28.9867 19.5704 29.0559 17.6368 29.5034C15.7931 29.9302 13.8964 30.6901 11.75 32.012V17.5768C11.75 16.9562 12.2531 16.4531 12.8737 16.4531H22.1842Z" fill="#0093C8"/>
<path d="M26.7137 7.2074C23.913 9.55138 22.0801 12.2248 21.0918 14.2076H12.8786C11.0169 14.2076 9.50758 15.7168 9.50758 17.5786V18.7888C5.47048 16.9232 2.72532 14.0011 1.10156 11.5799L17.6944 2L26.7137 7.2074Z" fill="#34ADD9"/>
<path d="M1 15.125C2.99615 17.4136 5.79886 19.7275 9.50791 21.235V25.9257C7.49595 29.1546 4.30413 31.6787 1 33.542V15.125Z" fill="#22B9FE"/>
<path d="M25.5625 36.1484C26.8669 36.3931 28.7057 37.086 30.5558 38.3243C31.9458 39.2548 33.2943 40.462 34.3915 41.9534V41.9841H25.5625V36.1484Z" fill="#78B466"/>
<path d="M23.3079 41.9731H11.75V34.6908C14.2431 32.9761 16.2623 32.1252 18.1435 31.6897C19.8337 31.2984 21.4523 31.2316 23.3079 31.22V41.9731Z" fill="#67B466"/>
<path d="M9.50791 41.9766H1V36.0995C1.29087 35.9482 1.58263 35.7921 1.87412 35.6305C4.57193 34.1346 7.31928 32.1671 9.50791 29.6719V41.9766Z" fill="#7ECE5A"/>
<path d="M34.3915 38.5417C33.5655 37.7371 32.6884 37.0407 31.8061 36.4502C29.6266 34.9913 27.3216 34.1135 25.5625 33.8655V27.0453C27.6183 23.7462 30.9056 21.1824 34.2861 19.308C34.3212 19.2885 34.3564 19.2693 34.3915 19.25V38.5417Z" fill="#2FABC4"/>
</svg>
