<svg width="106" height="48" viewBox="0 0 106 48" fill="none" xmlns="http://www.w3.org/2000/svg">
<path d="M71.7078 23.8227C70.7824 23.8227 69.9808 23.6207 69.303 23.2166C68.6252 22.8126 68.0973 22.2456 67.7193 21.5156C67.3544 20.7727 67.1719 19.8994 67.1719 18.8957C67.1719 17.8921 67.3544 17.0253 67.7193 16.2954C68.0973 15.5524 68.6252 14.9789 69.303 14.5748C69.9808 14.1708 70.7824 13.9688 71.7078 13.9688C72.6333 13.9688 73.4349 14.1708 74.1127 14.5748C74.7905 14.9789 75.3118 15.5524 75.6768 16.2954C76.0548 17.0253 76.2438 17.8921 76.2438 18.8957C76.2438 19.8994 76.0548 20.7727 75.6768 21.5156C75.3118 22.2456 74.7905 22.8126 74.1127 23.2166C73.4349 23.6207 72.6333 23.8227 71.7078 23.8227ZM71.7078 22.5519C72.6072 22.5519 73.3176 22.2391 73.839 21.6134C74.3734 20.9747 74.6406 20.0623 74.6406 18.8762C74.6406 17.7031 74.3734 16.8037 73.839 16.1781C73.3176 15.5524 72.6072 15.2396 71.7078 15.2396C70.8215 15.2396 70.1111 15.5524 69.5767 16.1781C69.0423 16.8037 68.7751 17.7031 68.7751 18.8762C68.7751 20.0623 69.0423 20.9747 69.5767 21.6134C70.1111 22.2391 70.8215 22.5519 71.7078 22.5519Z" fill="black"/>
<path d="M57.4453 23.6427V14.1406H59.029V18.1096H60.8082L63.9169 14.1406H65.657L62.0986 18.7548L61.6489 18.2464C62.0139 18.2856 62.3332 18.3768 62.6069 18.5202C62.8806 18.6635 63.1413 18.8851 63.389 19.1849C63.6366 19.4717 63.9038 19.8627 64.1906 20.358L66.1457 23.6427H64.4448L62.7242 20.7686C62.5026 20.4036 62.2941 20.1234 62.0986 19.9279C61.9031 19.7193 61.6815 19.576 61.4338 19.4977C61.1862 19.4195 60.8799 19.3804 60.5149 19.3804H59.029V23.6427H57.4453Z" fill="black"/>
<path d="M48.2001 23.8233C47.2617 23.8233 46.3884 23.6734 45.5802 23.3736C44.7721 23.0608 44.0943 22.6241 43.5469 22.0636L44.153 20.7537C44.7526 21.3142 45.3782 21.7247 46.0299 21.9854C46.6816 22.2331 47.3985 22.3569 48.1806 22.3569C49.6926 22.3569 50.8592 21.8877 51.6803 20.9492C52.5145 20.0107 52.9512 18.6747 52.9903 16.9411L53.5377 17.3126H46.0495V15.9635H53.5182L52.9707 16.3937C52.9316 14.7514 52.508 13.4675 51.6999 12.542C50.8917 11.6166 49.7838 11.1539 48.3761 11.1539C47.594 11.1539 46.8706 11.2777 46.2059 11.5253C45.5411 11.773 44.8568 12.1836 44.153 12.7571L43.5469 11.4471C44.1986 10.8736 44.935 10.437 45.7562 10.1372C46.5774 9.8374 47.4572 9.6875 48.3957 9.6875C49.6991 9.6875 50.82 9.97426 51.7585 10.5478C52.697 11.1213 53.4204 11.9359 53.9287 12.9917C54.4371 14.0345 54.6913 15.2858 54.6913 16.7456C54.6913 18.2055 54.4306 19.4633 53.9092 20.5191C53.4009 21.5748 52.6644 22.3895 51.6999 22.963C50.7353 23.5365 49.5688 23.8233 48.2001 23.8233Z" fill="black"/>
<path d="M102.083 41.6509C101.131 41.6509 100.31 41.4423 99.6194 41.0252C98.9286 40.6081 98.3942 40.0281 98.0162 39.2851C97.6512 38.5291 97.4688 37.6558 97.4688 36.6652C97.4688 35.6616 97.6512 34.7948 98.0162 34.0649C98.3942 33.3349 98.9286 32.7745 99.6194 32.3834C100.31 31.9924 101.131 31.7969 102.083 31.7969C102.669 31.7969 103.249 31.9011 103.823 32.1097C104.397 32.3182 104.872 32.6115 105.25 32.9895L104.703 34.1431C104.325 33.7781 103.908 33.5109 103.452 33.3414C103.008 33.172 102.585 33.0873 102.181 33.0873C101.19 33.0873 100.428 33.4001 99.8931 34.0258C99.3587 34.6384 99.0915 35.5247 99.0915 36.6848C99.0915 37.8188 99.3587 38.7181 99.8931 39.3829C100.428 40.0346 101.19 40.3605 102.181 40.3605C102.585 40.3605 103.008 40.2757 103.452 40.1063C103.908 39.9368 104.325 39.6631 104.703 39.2851L105.25 40.4387C104.872 40.8167 104.39 41.1164 103.803 41.338C103.23 41.5466 102.656 41.6509 102.083 41.6509Z" fill="black"/>
<path d="M86.4688 44.9942V31.9728H88.0133V34.2213H87.8178C88.0264 33.4783 88.4369 32.8918 89.0496 32.4616C89.6752 32.0185 90.4182 31.7969 91.2784 31.7969C92.1257 31.7969 92.8621 31.9989 93.4878 32.403C94.1264 32.794 94.6152 33.361 94.9541 34.104C95.306 34.8339 95.482 35.7072 95.482 36.7239C95.482 37.7275 95.306 38.6008 94.9541 39.3438C94.6152 40.0737 94.133 40.6407 93.5073 41.0448C92.8817 41.4488 92.1387 41.6509 91.2784 41.6509C90.4182 41.6509 89.6817 41.4358 89.0691 41.0057C88.4565 40.5625 88.0394 39.9759 87.8178 39.246H88.0524V44.9942H86.4688ZM90.9461 40.38C91.8454 40.38 92.5558 40.0672 93.0772 39.4415C93.6116 38.8028 93.8788 37.897 93.8788 36.7239C93.8788 35.5377 93.6116 34.6318 93.0772 34.0062C92.5558 33.3805 91.8454 33.0677 90.9461 33.0677C90.0597 33.0677 89.3493 33.3805 88.8149 34.0062C88.2805 34.6318 88.0133 35.5377 88.0133 36.7239C88.0133 37.897 88.2805 38.8028 88.8149 39.4415C89.3493 40.0672 90.0597 40.38 90.9461 40.38Z" fill="black"/>
<path d="M77.3072 44.9901L79.0864 40.982V41.6663L74.9219 31.9688H76.6424L80.0444 40.2977H79.5165L82.9576 31.9688H84.6194L78.969 44.9901H77.3072Z" fill="black"/>
<path d="M71.0048 41.6509C70.0533 41.6509 69.2321 41.4423 68.5413 41.0252C67.8505 40.6081 67.3161 40.0281 66.9381 39.2851C66.5731 38.5291 66.3906 37.6558 66.3906 36.6652C66.3906 35.6616 66.5731 34.7948 66.9381 34.0649C67.3161 33.3349 67.8505 32.7745 68.5413 32.3834C69.2321 31.9924 70.0533 31.7969 71.0048 31.7969C71.5913 31.7969 72.1714 31.9011 72.7449 32.1097C73.3184 32.3182 73.7941 32.6115 74.1721 32.9895L73.6247 34.1431C73.2467 33.7781 72.8296 33.5109 72.3734 33.3414C71.9302 33.172 71.5066 33.0873 71.1025 33.0873C70.1119 33.0873 69.3494 33.4001 68.815 34.0258C68.2806 34.6384 68.0134 35.5247 68.0134 36.6848C68.0134 37.8188 68.2806 38.7181 68.815 39.3829C69.3494 40.0346 70.1119 40.3605 71.1025 40.3605C71.5066 40.3605 71.9302 40.2757 72.3734 40.1063C72.8296 39.9368 73.2467 39.6631 73.6247 39.2851L74.1721 40.4387C73.7941 40.8167 73.3119 41.1164 72.7253 41.338C72.1518 41.5466 71.5783 41.6509 71.0048 41.6509Z" fill="black"/>
<path d="M60.6574 41.6509C59.6538 41.6509 58.787 41.4553 58.057 41.0643C57.3402 40.6602 56.7797 40.0932 56.3756 39.3633C55.9846 38.6334 55.7891 37.7601 55.7891 36.7434C55.7891 35.7528 55.9846 34.8925 56.3756 34.1626C56.7666 33.4197 57.301 32.8396 57.9788 32.4225C58.6697 32.0054 59.4648 31.7969 60.3641 31.7969C61.2244 31.7969 61.9608 31.9859 62.5734 32.3639C63.1861 32.7419 63.6553 33.2763 63.9812 33.9671C64.3201 34.6579 64.4895 35.4856 64.4895 36.4501V37.0562H57.0013V36.02H63.4337L63.1209 36.2742C63.1209 35.2314 62.8863 34.4233 62.417 33.8498C61.9608 33.2632 61.2896 32.97 60.4032 32.97C59.7385 32.97 59.1715 33.1264 58.7022 33.4392C58.246 33.739 57.9006 34.1626 57.666 34.7101C57.4314 35.2445 57.3141 35.8701 57.3141 36.587V36.7043C57.3141 37.4994 57.4379 38.1707 57.6856 38.7181C57.9462 39.2656 58.3308 39.6827 58.8391 39.9694C59.3474 40.2431 59.9535 40.38 60.6574 40.38C61.2179 40.38 61.7588 40.2953 62.2802 40.1258C62.8146 39.9434 63.3164 39.6501 63.7856 39.246L64.3331 40.3605C63.903 40.7515 63.3555 41.0643 62.6908 41.2989C62.026 41.5335 61.3482 41.6509 60.6574 41.6509Z" fill="black"/>
<path d="M44.4297 41.4713V27.6875H49.8846C50.8752 27.6875 51.7094 27.8504 52.3872 28.1763C53.078 28.4891 53.5994 28.9584 53.9513 29.584C54.3032 30.1966 54.4792 30.9461 54.4792 31.8324C54.4792 32.6927 54.3032 33.4357 53.9513 34.0613C53.5994 34.687 53.078 35.1627 52.3872 35.4886C51.7094 35.8144 50.8752 35.9774 49.8846 35.9774H46.0329V41.4713H44.4297ZM46.0329 34.6283H49.6891C50.7448 34.6283 51.5399 34.3937 52.0743 33.9244C52.6218 33.4422 52.8955 32.7448 52.8955 31.8324C52.8955 30.907 52.6218 30.2097 52.0743 29.7404C51.5399 29.2581 50.7448 29.017 49.6891 29.017H46.0329V34.6283Z" fill="black"/>
<path d="M34.3854 11.6478V16.7182C33.9882 16.9201 33.5891 17.1313 33.1903 17.3524C30.4925 18.8483 27.7451 20.8156 25.5565 23.3107V17.5876C25.5565 16.1892 24.705 14.9897 23.4922 14.4792C24.5099 12.6848 26.2476 10.3872 28.798 8.42188L34.3854 11.6478Z" fill="#37CFD9"/>
<path d="M22.1842 16.4531C22.8048 16.4531 23.3079 16.9562 23.3079 17.5768V28.9758C21.4075 28.9867 19.5704 29.0559 17.6368 29.5034C15.7931 29.9302 13.8964 30.6901 11.75 32.012V17.5768C11.75 16.9562 12.2531 16.4531 12.8737 16.4531H22.1842Z" fill="#0093C8"/>
<path d="M26.7137 7.2074C23.913 9.55138 22.0801 12.2248 21.0918 14.2076H12.8786C11.0169 14.2076 9.50758 15.7168 9.50758 17.5786V18.7888C5.47048 16.9232 2.72532 14.0011 1.10156 11.5799L17.6944 2L26.7137 7.2074Z" fill="#34ADD9"/>
<path d="M1 15.125C2.99615 17.4136 5.79886 19.7275 9.50791 21.235V25.9257C7.49595 29.1546 4.30413 31.6787 1 33.542V15.125Z" fill="#22B9FE"/>
<path d="M25.5625 36.1484C26.8669 36.3931 28.7057 37.086 30.5558 38.3243C31.9458 39.2548 33.2943 40.462 34.3915 41.9534V41.9841H25.5625V36.1484Z" fill="#78B466"/>
<path d="M23.3079 41.9731H11.75V34.6908C14.2431 32.9761 16.2623 32.1252 18.1435 31.6897C19.8337 31.2984 21.4523 31.2316 23.3079 31.22V41.9731Z" fill="#67B466"/>
<path d="M9.50791 41.9766H1V36.0995C1.29087 35.9482 1.58263 35.7921 1.87412 35.6305C4.57193 34.1346 7.31928 32.1671 9.50791 29.6719V41.9766Z" fill="#7ECE5A"/>
<path d="M34.3915 38.5417C33.5655 37.7371 32.6884 37.0407 31.8061 36.4502C29.6266 34.9913 27.3216 34.1135 25.5625 33.8655V27.0453C27.6183 23.7462 30.9056 21.1824 34.2861 19.308C34.3212 19.2885 34.3564 19.2693 34.3915 19.25V38.5417Z" fill="#2FABC4"/>
</svg>
